<mxfile host="app.diagrams.net" agent="Mozilla/5.0 (X11; Linux x86_64) AppleWebKit/537.36 (KHTML, like Gecko) Chrome/128.0.0.0 Safari/537.36" version="27.1.1">
  <diagram name="UML Classes" id="qMdgy1dIa1OtGATd_7hq">
    <mxGraphModel dx="2259" dy="2004" grid="1" gridSize="10" guides="1" tooltips="1" connect="1" arrows="1" fold="1" page="1" pageScale="1" pageWidth="827" pageHeight="1169" math="0" shadow="0">
      <root>
        <mxCell id="0" />
        <mxCell id="1" parent="0" />
        <mxCell id="pqR6QMyqGFFjnIL56ZZp-41" value="Client&lt;div&gt;&lt;br/&gt;&lt;/div&gt;" style="shape=swimlane;rounded=0;whiteSpace=wrap;html=1;startSize=40;" vertex="1" parent="1">
          <mxGeometry x="-570" y="-130" width="200" height="260" as="geometry" />
        </mxCell>
        <mxCell id="pqR6QMyqGFFjnIL56ZZp-51" value="- id_client : int&#xa;- nom : varchar(100)&#xa;- prenom : varchar(100)&#xa;- raison_sociale : varchar(255)&#xa;- type_client : varchar(20)&#xa;- email : varchar(255)&#xa;- telephone : varchar(20)&#xa;- adresse_facturation : text&#xa;- adresse_livraison : text&#xa;- coefficient : decimal(5,2)" style="text;align=center;verticalAlign=middle;resizable=0;points=[];autosize=1;strokeColor=none;fillColor=none;labelPosition=center;verticalLabelPosition=middle;" vertex="1" parent="pqR6QMyqGFFjnIL56ZZp-41">
          <mxGeometry x="5" y="60" width="190" height="160" as="geometry" />
        </mxCell>
        <mxCell id="pqR6QMyqGFFjnIL56ZZp-52" value="&lt;div&gt;Commercial&lt;/div&gt;" style="shape=swimlane;rounded=0;whiteSpace=wrap;html=1;startSize=40;" vertex="1" parent="1">
          <mxGeometry x="-750" y="250" width="200" height="130" as="geometry" />
        </mxCell>
        <mxCell id="pqR6QMyqGFFjnIL56ZZp-53" value="-id_commercial : int&#xa;-nom : varchar(100)&#xa;-specialite : varchar(50)" style="text;align=center;verticalAlign=middle;resizable=0;points=[];autosize=1;strokeColor=none;fillColor=none;labelPosition=center;verticalLabelPosition=middle;" vertex="1" parent="pqR6QMyqGFFjnIL56ZZp-52">
          <mxGeometry x="25" y="50" width="150" height="60" as="geometry" />
        </mxCell>
        <mxCell id="pqR6QMyqGFFjnIL56ZZp-55" value="&lt;div&gt;Commande&lt;/div&gt;" style="shape=swimlane;rounded=0;whiteSpace=wrap;html=1;startSize=40;" vertex="1" parent="1">
          <mxGeometry x="-220" y="-110" width="200" height="260" as="geometry" />
        </mxCell>
        <mxCell id="pqR6QMyqGFFjnIL56ZZp-56" value="-id commande : int&#xa;-date_commande : datetime&#xa;-montant_total : decimal(10,2)&#xa;-reduction : decimal(5,2)&#xa;-mode_paiement : varchar(50)&#xa;-date_reglement : date&#xa;" style="text;align=center;verticalAlign=middle;resizable=0;points=[];autosize=1;strokeColor=none;fillColor=none;labelPosition=center;verticalLabelPosition=middle;" vertex="1" parent="pqR6QMyqGFFjnIL56ZZp-55">
          <mxGeometry x="10" y="90" width="180" height="100" as="geometry" />
        </mxCell>
        <mxCell id="pqR6QMyqGFFjnIL56ZZp-57" value="&lt;div&gt;Facture&lt;/div&gt;" style="shape=swimlane;rounded=0;whiteSpace=wrap;html=1;startSize=40;" vertex="1" parent="1">
          <mxGeometry x="-170" y="310" width="200" height="140" as="geometry" />
        </mxCell>
        <mxCell id="pqR6QMyqGFFjnIL56ZZp-58" value="-id_facture : int&#xa;-date_facture : date&#xa;-total_HT : decimal(10,2)&#xa;-TVA : decimal(10,2)&#xa;-total_TTC : decimal(10,2)" style="text;align=center;verticalAlign=middle;resizable=0;points=[];autosize=1;strokeColor=none;fillColor=none;labelPosition=center;verticalLabelPosition=middle;" vertex="1" parent="pqR6QMyqGFFjnIL56ZZp-57">
          <mxGeometry x="20" y="45" width="160" height="90" as="geometry" />
        </mxCell>
        <mxCell id="pqR6QMyqGFFjnIL56ZZp-59" value="&lt;div&gt;Livraison&lt;/div&gt;" style="shape=swimlane;rounded=0;whiteSpace=wrap;html=1;startSize=40;" vertex="1" parent="1">
          <mxGeometry x="120" y="430" width="200" height="110" as="geometry" />
        </mxCell>
        <mxCell id="pqR6QMyqGFFjnIL56ZZp-60" value="-id_livraison : int&#xa;date_livraison : date&#xa;-adresse_livraison : text" style="text;align=center;verticalAlign=middle;resizable=0;points=[];autosize=1;strokeColor=none;fillColor=none;labelPosition=center;verticalLabelPosition=middle;" vertex="1" parent="pqR6QMyqGFFjnIL56ZZp-59">
          <mxGeometry x="25" y="40" width="150" height="60" as="geometry" />
        </mxCell>
        <mxCell id="pqR6QMyqGFFjnIL56ZZp-61" value="&lt;div&gt;Statut_livraison&lt;/div&gt;" style="shape=swimlane;rounded=0;whiteSpace=wrap;html=1;startSize=40;" vertex="1" parent="1">
          <mxGeometry x="130" y="620" width="200" height="90" as="geometry" />
        </mxCell>
        <mxCell id="pqR6QMyqGFFjnIL56ZZp-62" value="-id_statut_livraison : int&#xa;-libelle : varchar(50)" style="text;align=center;verticalAlign=middle;resizable=0;points=[];autosize=1;strokeColor=none;fillColor=none;labelPosition=center;verticalLabelPosition=middle;" vertex="1" parent="pqR6QMyqGFFjnIL56ZZp-61">
          <mxGeometry x="25" y="40" width="150" height="40" as="geometry" />
        </mxCell>
        <mxCell id="pqR6QMyqGFFjnIL56ZZp-63" value="&lt;div&gt;Statut_commande&lt;/div&gt;" style="shape=swimlane;rounded=0;whiteSpace=wrap;html=1;startSize=40;" vertex="1" parent="1">
          <mxGeometry x="-410" y="250" width="200" height="110" as="geometry" />
        </mxCell>
        <mxCell id="pqR6QMyqGFFjnIL56ZZp-64" value="-id_statut : int&#xa;-libelle : varchar(50)" style="text;align=center;verticalAlign=middle;resizable=0;points=[];autosize=1;strokeColor=none;fillColor=none;labelPosition=center;verticalLabelPosition=middle;" vertex="1" parent="pqR6QMyqGFFjnIL56ZZp-63">
          <mxGeometry x="35" y="60" width="130" height="40" as="geometry" />
        </mxCell>
        <mxCell id="pqR6QMyqGFFjnIL56ZZp-65" value="&lt;div&gt;Ligne&lt;/div&gt;" style="shape=swimlane;rounded=0;whiteSpace=wrap;html=1;startSize=40;" vertex="1" parent="1">
          <mxGeometry x="130" y="-210" width="200" height="110" as="geometry" />
        </mxCell>
        <mxCell id="pqR6QMyqGFFjnIL56ZZp-66" value="-id_ligne : int&#xa;-quantite : int&#xa;-prix_unitaire : decimal(10,2)&#xa;" style="text;align=center;verticalAlign=middle;resizable=0;points=[];autosize=1;strokeColor=none;fillColor=none;labelPosition=center;verticalLabelPosition=middle;" vertex="1" parent="pqR6QMyqGFFjnIL56ZZp-65">
          <mxGeometry x="10" y="40" width="180" height="60" as="geometry" />
        </mxCell>
        <mxCell id="pqR6QMyqGFFjnIL56ZZp-67" value="&lt;div&gt;Produit&lt;/div&gt;" style="shape=swimlane;rounded=0;whiteSpace=wrap;html=1;startSize=40;" vertex="1" parent="1">
          <mxGeometry x="170" width="210" height="170" as="geometry" />
        </mxCell>
        <mxCell id="pqR6QMyqGFFjnIL56ZZp-68" value="-id_produit : int&#xa;-libelle_court : varchar(100)&#xa;-description : text&#xa;-reference_fournisseur : varchar(100)&#xa;-prix_achat : decimal(10,2)&#xa;-photo : varchar(255)&#xa;-statut_publication : tinyint(1)" style="text;align=center;verticalAlign=middle;resizable=0;points=[];autosize=1;strokeColor=none;fillColor=none;labelPosition=center;verticalLabelPosition=middle;" vertex="1" parent="pqR6QMyqGFFjnIL56ZZp-67">
          <mxGeometry x="-10" y="40" width="220" height="110" as="geometry" />
        </mxCell>
        <mxCell id="pqR6QMyqGFFjnIL56ZZp-69" value="&lt;div&gt;Sous_rubrique&lt;/div&gt;" style="shape=swimlane;rounded=0;whiteSpace=wrap;html=1;startSize=40;" vertex="1" parent="1">
          <mxGeometry x="500" y="100" width="205" height="130" as="geometry" />
        </mxCell>
        <mxCell id="pqR6QMyqGFFjnIL56ZZp-70" value="id_sous_rubrique : int&#xa;nom_sous_rubrique : varchar(100)&#xa;photo : varchar(255)&#xa;" style="text;align=center;verticalAlign=middle;resizable=0;points=[];autosize=1;strokeColor=none;fillColor=none;labelPosition=center;verticalLabelPosition=middle;" vertex="1" parent="pqR6QMyqGFFjnIL56ZZp-69">
          <mxGeometry x="-2.5" y="50" width="210" height="60" as="geometry" />
        </mxCell>
        <mxCell id="pqR6QMyqGFFjnIL56ZZp-71" value="&lt;div&gt;Rubrique&lt;/div&gt;" style="shape=swimlane;rounded=0;whiteSpace=wrap;html=1;startSize=40;" vertex="1" parent="1">
          <mxGeometry x="830" y="170" width="200" height="120" as="geometry" />
        </mxCell>
        <mxCell id="pqR6QMyqGFFjnIL56ZZp-72" value="-id_rubrique : int&#xa;-photo : varchar(255)&#xa;-nom_rubrique : varchar(100)" style="text;align=center;verticalAlign=middle;resizable=0;points=[];autosize=1;strokeColor=none;fillColor=none;labelPosition=center;verticalLabelPosition=middle;" vertex="1" parent="pqR6QMyqGFFjnIL56ZZp-71">
          <mxGeometry x="10" y="40" width="180" height="60" as="geometry" />
        </mxCell>
        <mxCell id="pqR6QMyqGFFjnIL56ZZp-74" value="&lt;div&gt;Fournisseur&lt;/div&gt;" style="shape=swimlane;rounded=0;whiteSpace=wrap;html=1;startSize=40;" vertex="1" parent="1">
          <mxGeometry x="550" y="-140" width="200" height="130" as="geometry" />
        </mxCell>
        <mxCell id="pqR6QMyqGFFjnIL56ZZp-75" value="-id_fournisseur : int&#xa;-nom : varchar(255)&#xa;-contact : varchar(255)" style="text;align=center;verticalAlign=middle;resizable=0;points=[];autosize=1;strokeColor=none;fillColor=none;labelPosition=center;verticalLabelPosition=middle;" vertex="1" parent="pqR6QMyqGFFjnIL56ZZp-74">
          <mxGeometry x="30" y="50" width="140" height="60" as="geometry" />
        </mxCell>
        <mxCell id="pqR6QMyqGFFjnIL56ZZp-77" value="" style="endArrow=none;html=1;edgeStyle=orthogonalEdgeStyle;rounded=0;" edge="1" parent="1">
          <mxGeometry relative="1" as="geometry">
            <mxPoint x="-370" as="sourcePoint" />
            <mxPoint x="-210" as="targetPoint" />
          </mxGeometry>
        </mxCell>
        <mxCell id="pqR6QMyqGFFjnIL56ZZp-78" value="1" style="edgeLabel;resizable=0;html=1;align=left;verticalAlign=bottom;" connectable="0" vertex="1" parent="pqR6QMyqGFFjnIL56ZZp-77">
          <mxGeometry x="-1" relative="1" as="geometry" />
        </mxCell>
        <mxCell id="pqR6QMyqGFFjnIL56ZZp-79" value="1..*" style="edgeLabel;resizable=0;html=1;align=right;verticalAlign=bottom;" connectable="0" vertex="1" parent="pqR6QMyqGFFjnIL56ZZp-77">
          <mxGeometry x="1" relative="1" as="geometry" />
        </mxCell>
        <mxCell id="pqR6QMyqGFFjnIL56ZZp-112" value="passe" style="edgeLabel;html=1;align=center;verticalAlign=middle;resizable=0;points=[];" vertex="1" connectable="0" parent="pqR6QMyqGFFjnIL56ZZp-77">
          <mxGeometry x="0.0114" y="6" relative="1" as="geometry">
            <mxPoint x="-1" as="offset" />
          </mxGeometry>
        </mxCell>
        <mxCell id="pqR6QMyqGFFjnIL56ZZp-80" value="" style="endArrow=none;html=1;edgeStyle=orthogonalEdgeStyle;rounded=0;entryX=0.5;entryY=0;entryDx=0;entryDy=0;" edge="1" parent="1" target="pqR6QMyqGFFjnIL56ZZp-52">
          <mxGeometry relative="1" as="geometry">
            <mxPoint x="-570" y="150" as="sourcePoint" />
            <mxPoint x="-410" y="150" as="targetPoint" />
          </mxGeometry>
        </mxCell>
        <mxCell id="pqR6QMyqGFFjnIL56ZZp-81" value="1" style="edgeLabel;resizable=0;html=1;align=left;verticalAlign=bottom;" connectable="0" vertex="1" parent="pqR6QMyqGFFjnIL56ZZp-80">
          <mxGeometry x="-1" relative="1" as="geometry" />
        </mxCell>
        <mxCell id="pqR6QMyqGFFjnIL56ZZp-82" value="1" style="edgeLabel;resizable=0;html=1;align=right;verticalAlign=bottom;" connectable="0" vertex="1" parent="pqR6QMyqGFFjnIL56ZZp-80">
          <mxGeometry x="1" relative="1" as="geometry" />
        </mxCell>
        <mxCell id="pqR6QMyqGFFjnIL56ZZp-83" value="1..*" style="edgeLabel;html=1;align=center;verticalAlign=middle;resizable=0;points=[];" vertex="1" connectable="0" parent="pqR6QMyqGFFjnIL56ZZp-80">
          <mxGeometry x="-1" y="14" relative="1" as="geometry">
            <mxPoint x="-5" y="-10" as="offset" />
          </mxGeometry>
        </mxCell>
        <mxCell id="pqR6QMyqGFFjnIL56ZZp-113" value="attribue" style="edgeLabel;html=1;align=center;verticalAlign=middle;resizable=0;points=[];" vertex="1" connectable="0" parent="pqR6QMyqGFFjnIL56ZZp-80">
          <mxGeometry x="-0.0826" y="3" relative="1" as="geometry">
            <mxPoint x="1" as="offset" />
          </mxGeometry>
        </mxCell>
        <mxCell id="pqR6QMyqGFFjnIL56ZZp-84" value="" style="endArrow=none;html=1;edgeStyle=orthogonalEdgeStyle;rounded=0;entryX=0.5;entryY=0;entryDx=0;entryDy=0;" edge="1" parent="1" target="pqR6QMyqGFFjnIL56ZZp-63">
          <mxGeometry relative="1" as="geometry">
            <mxPoint x="-200" y="160" as="sourcePoint" />
            <mxPoint x="-40" y="170" as="targetPoint" />
          </mxGeometry>
        </mxCell>
        <mxCell id="pqR6QMyqGFFjnIL56ZZp-85" value="1..*" style="edgeLabel;resizable=0;html=1;align=left;verticalAlign=bottom;" connectable="0" vertex="1" parent="pqR6QMyqGFFjnIL56ZZp-84">
          <mxGeometry x="-1" relative="1" as="geometry" />
        </mxCell>
        <mxCell id="pqR6QMyqGFFjnIL56ZZp-86" value="1" style="edgeLabel;resizable=0;html=1;align=right;verticalAlign=bottom;" connectable="0" vertex="1" parent="pqR6QMyqGFFjnIL56ZZp-84">
          <mxGeometry x="1" relative="1" as="geometry" />
        </mxCell>
        <mxCell id="pqR6QMyqGFFjnIL56ZZp-114" value="suit" style="edgeLabel;html=1;align=center;verticalAlign=middle;resizable=0;points=[];" vertex="1" connectable="0" parent="pqR6QMyqGFFjnIL56ZZp-84">
          <mxGeometry x="0.4251" y="-5" relative="1" as="geometry">
            <mxPoint as="offset" />
          </mxGeometry>
        </mxCell>
        <mxCell id="pqR6QMyqGFFjnIL56ZZp-87" value="" style="endArrow=none;html=1;edgeStyle=orthogonalEdgeStyle;rounded=0;entryX=0.571;entryY=0;entryDx=0;entryDy=0;entryPerimeter=0;" edge="1" parent="1" target="pqR6QMyqGFFjnIL56ZZp-57">
          <mxGeometry relative="1" as="geometry">
            <mxPoint x="-110" y="150" as="sourcePoint" />
            <mxPoint x="60" y="190" as="targetPoint" />
          </mxGeometry>
        </mxCell>
        <mxCell id="pqR6QMyqGFFjnIL56ZZp-88" value="1" style="edgeLabel;resizable=0;html=1;align=left;verticalAlign=bottom;" connectable="0" vertex="1" parent="pqR6QMyqGFFjnIL56ZZp-87">
          <mxGeometry x="-1" relative="1" as="geometry" />
        </mxCell>
        <mxCell id="pqR6QMyqGFFjnIL56ZZp-89" value="1" style="edgeLabel;resizable=0;html=1;align=right;verticalAlign=bottom;" connectable="0" vertex="1" parent="pqR6QMyqGFFjnIL56ZZp-87">
          <mxGeometry x="1" relative="1" as="geometry" />
        </mxCell>
        <mxCell id="pqR6QMyqGFFjnIL56ZZp-90" value="0..1" style="edgeLabel;html=1;align=center;verticalAlign=middle;resizable=0;points=[];" vertex="1" connectable="0" parent="pqR6QMyqGFFjnIL56ZZp-87">
          <mxGeometry x="-1" y="12" relative="1" as="geometry">
            <mxPoint x="-5" y="-10" as="offset" />
          </mxGeometry>
        </mxCell>
        <mxCell id="pqR6QMyqGFFjnIL56ZZp-115" value="apporte" style="edgeLabel;html=1;align=center;verticalAlign=middle;resizable=0;points=[];" vertex="1" connectable="0" parent="pqR6QMyqGFFjnIL56ZZp-87">
          <mxGeometry x="-0.533" y="-3" relative="1" as="geometry">
            <mxPoint y="1" as="offset" />
          </mxGeometry>
        </mxCell>
        <mxCell id="pqR6QMyqGFFjnIL56ZZp-91" value="" style="endArrow=none;html=1;edgeStyle=orthogonalEdgeStyle;rounded=0;entryX=0.25;entryY=0;entryDx=0;entryDy=0;" edge="1" parent="1" target="pqR6QMyqGFFjnIL56ZZp-59">
          <mxGeometry relative="1" as="geometry">
            <mxPoint x="-20" y="120" as="sourcePoint" />
            <mxPoint x="160" y="160" as="targetPoint" />
            <Array as="points">
              <mxPoint x="140" y="121" />
              <mxPoint x="140" y="430" />
            </Array>
          </mxGeometry>
        </mxCell>
        <mxCell id="pqR6QMyqGFFjnIL56ZZp-92" value="1" style="edgeLabel;resizable=0;html=1;align=left;verticalAlign=bottom;" connectable="0" vertex="1" parent="pqR6QMyqGFFjnIL56ZZp-91">
          <mxGeometry x="-1" relative="1" as="geometry" />
        </mxCell>
        <mxCell id="pqR6QMyqGFFjnIL56ZZp-93" value="1..*" style="edgeLabel;resizable=0;html=1;align=right;verticalAlign=bottom;" connectable="0" vertex="1" parent="pqR6QMyqGFFjnIL56ZZp-91">
          <mxGeometry x="1" relative="1" as="geometry" />
        </mxCell>
        <mxCell id="pqR6QMyqGFFjnIL56ZZp-116" value="livre" style="edgeLabel;html=1;align=center;verticalAlign=middle;resizable=0;points=[];" vertex="1" connectable="0" parent="pqR6QMyqGFFjnIL56ZZp-91">
          <mxGeometry x="0.0786" y="-1" relative="1" as="geometry">
            <mxPoint as="offset" />
          </mxGeometry>
        </mxCell>
        <mxCell id="pqR6QMyqGFFjnIL56ZZp-94" value="" style="endArrow=none;html=1;edgeStyle=orthogonalEdgeStyle;rounded=0;entryX=0.5;entryY=0;entryDx=0;entryDy=0;" edge="1" parent="1" target="pqR6QMyqGFFjnIL56ZZp-61">
          <mxGeometry relative="1" as="geometry">
            <mxPoint x="200" y="540" as="sourcePoint" />
            <mxPoint x="430" y="570" as="targetPoint" />
          </mxGeometry>
        </mxCell>
        <mxCell id="pqR6QMyqGFFjnIL56ZZp-95" value="1..*" style="edgeLabel;resizable=0;html=1;align=left;verticalAlign=bottom;" connectable="0" vertex="1" parent="pqR6QMyqGFFjnIL56ZZp-94">
          <mxGeometry x="-1" relative="1" as="geometry" />
        </mxCell>
        <mxCell id="pqR6QMyqGFFjnIL56ZZp-96" value="1" style="edgeLabel;resizable=0;html=1;align=right;verticalAlign=bottom;" connectable="0" vertex="1" parent="pqR6QMyqGFFjnIL56ZZp-94">
          <mxGeometry x="1" relative="1" as="geometry" />
        </mxCell>
        <mxCell id="pqR6QMyqGFFjnIL56ZZp-117" value="a_pour_statut" style="edgeLabel;html=1;align=center;verticalAlign=middle;resizable=0;points=[];" vertex="1" connectable="0" parent="pqR6QMyqGFFjnIL56ZZp-94">
          <mxGeometry x="-0.4374" y="5" relative="1" as="geometry">
            <mxPoint as="offset" />
          </mxGeometry>
        </mxCell>
        <mxCell id="pqR6QMyqGFFjnIL56ZZp-97" value="" style="endArrow=none;html=1;edgeStyle=orthogonalEdgeStyle;rounded=0;exitX=0.996;exitY=0.048;exitDx=0;exitDy=0;exitPerimeter=0;entryX=0;entryY=0.75;entryDx=0;entryDy=0;" edge="1" parent="1" source="pqR6QMyqGFFjnIL56ZZp-55" target="pqR6QMyqGFFjnIL56ZZp-65">
          <mxGeometry relative="1" as="geometry">
            <mxPoint y="-100" as="sourcePoint" />
            <mxPoint x="160" y="-100" as="targetPoint" />
          </mxGeometry>
        </mxCell>
        <mxCell id="pqR6QMyqGFFjnIL56ZZp-98" value="1" style="edgeLabel;resizable=0;html=1;align=left;verticalAlign=bottom;" connectable="0" vertex="1" parent="pqR6QMyqGFFjnIL56ZZp-97">
          <mxGeometry x="-1" relative="1" as="geometry" />
        </mxCell>
        <mxCell id="pqR6QMyqGFFjnIL56ZZp-99" value="1..*" style="edgeLabel;resizable=0;html=1;align=right;verticalAlign=bottom;" connectable="0" vertex="1" parent="pqR6QMyqGFFjnIL56ZZp-97">
          <mxGeometry x="1" relative="1" as="geometry" />
        </mxCell>
        <mxCell id="pqR6QMyqGFFjnIL56ZZp-118" value="compose" style="edgeLabel;html=1;align=center;verticalAlign=middle;resizable=0;points=[];" vertex="1" connectable="0" parent="pqR6QMyqGFFjnIL56ZZp-97">
          <mxGeometry x="0.0155" y="-1" relative="1" as="geometry">
            <mxPoint as="offset" />
          </mxGeometry>
        </mxCell>
        <mxCell id="pqR6QMyqGFFjnIL56ZZp-100" value="" style="endArrow=none;html=1;edgeStyle=orthogonalEdgeStyle;rounded=0;entryX=0.75;entryY=1;entryDx=0;entryDy=0;exitX=0.5;exitY=0;exitDx=0;exitDy=0;" edge="1" parent="1" source="pqR6QMyqGFFjnIL56ZZp-67" target="pqR6QMyqGFFjnIL56ZZp-65">
          <mxGeometry relative="1" as="geometry">
            <mxPoint x="160" y="-80" as="sourcePoint" />
            <mxPoint x="320" y="-80" as="targetPoint" />
            <Array as="points">
              <mxPoint x="280" />
            </Array>
          </mxGeometry>
        </mxCell>
        <mxCell id="pqR6QMyqGFFjnIL56ZZp-101" value="1" style="edgeLabel;resizable=0;html=1;align=left;verticalAlign=bottom;" connectable="0" vertex="1" parent="pqR6QMyqGFFjnIL56ZZp-100">
          <mxGeometry x="-1" relative="1" as="geometry" />
        </mxCell>
        <mxCell id="pqR6QMyqGFFjnIL56ZZp-102" value="1..*" style="edgeLabel;resizable=0;html=1;align=right;verticalAlign=bottom;" connectable="0" vertex="1" parent="pqR6QMyqGFFjnIL56ZZp-100">
          <mxGeometry x="1" relative="1" as="geometry" />
        </mxCell>
        <mxCell id="pqR6QMyqGFFjnIL56ZZp-119" value="contient" style="edgeLabel;html=1;align=center;verticalAlign=middle;resizable=0;points=[];" vertex="1" connectable="0" parent="pqR6QMyqGFFjnIL56ZZp-100">
          <mxGeometry x="0.1736" y="-4" relative="1" as="geometry">
            <mxPoint y="1" as="offset" />
          </mxGeometry>
        </mxCell>
        <mxCell id="pqR6QMyqGFFjnIL56ZZp-103" value="" style="endArrow=none;html=1;edgeStyle=orthogonalEdgeStyle;rounded=0;entryX=1.008;entryY=0.154;entryDx=0;entryDy=0;entryPerimeter=0;exitX=0;exitY=0.75;exitDx=0;exitDy=0;" edge="1" parent="1" source="pqR6QMyqGFFjnIL56ZZp-74" target="pqR6QMyqGFFjnIL56ZZp-67">
          <mxGeometry relative="1" as="geometry">
            <mxPoint x="400" y="-30" as="sourcePoint" />
            <mxPoint x="560" y="-30" as="targetPoint" />
          </mxGeometry>
        </mxCell>
        <mxCell id="pqR6QMyqGFFjnIL56ZZp-104" value="1" style="edgeLabel;resizable=0;html=1;align=left;verticalAlign=bottom;" connectable="0" vertex="1" parent="pqR6QMyqGFFjnIL56ZZp-103">
          <mxGeometry x="-1" relative="1" as="geometry" />
        </mxCell>
        <mxCell id="pqR6QMyqGFFjnIL56ZZp-105" value="1..*" style="edgeLabel;resizable=0;html=1;align=right;verticalAlign=bottom;" connectable="0" vertex="1" parent="pqR6QMyqGFFjnIL56ZZp-103">
          <mxGeometry x="1" relative="1" as="geometry" />
        </mxCell>
        <mxCell id="pqR6QMyqGFFjnIL56ZZp-120" value="fournit" style="edgeLabel;html=1;align=center;verticalAlign=middle;resizable=0;points=[];" vertex="1" connectable="0" parent="pqR6QMyqGFFjnIL56ZZp-103">
          <mxGeometry x="-0.1334" y="2" relative="1" as="geometry">
            <mxPoint as="offset" />
          </mxGeometry>
        </mxCell>
        <mxCell id="pqR6QMyqGFFjnIL56ZZp-106" value="" style="endArrow=none;html=1;edgeStyle=orthogonalEdgeStyle;rounded=0;entryX=0.997;entryY=0.909;entryDx=0;entryDy=0;entryPerimeter=0;exitX=0.002;exitY=0.183;exitDx=0;exitDy=0;exitPerimeter=0;" edge="1" parent="1" source="pqR6QMyqGFFjnIL56ZZp-69" target="pqR6QMyqGFFjnIL56ZZp-68">
          <mxGeometry relative="1" as="geometry">
            <mxPoint x="500" y="90" as="sourcePoint" />
            <mxPoint x="660" y="90" as="targetPoint" />
          </mxGeometry>
        </mxCell>
        <mxCell id="pqR6QMyqGFFjnIL56ZZp-107" value="1" style="edgeLabel;resizable=0;html=1;align=left;verticalAlign=bottom;" connectable="0" vertex="1" parent="pqR6QMyqGFFjnIL56ZZp-106">
          <mxGeometry x="-1" relative="1" as="geometry" />
        </mxCell>
        <mxCell id="pqR6QMyqGFFjnIL56ZZp-108" value="1..*" style="edgeLabel;resizable=0;html=1;align=right;verticalAlign=bottom;" connectable="0" vertex="1" parent="pqR6QMyqGFFjnIL56ZZp-106">
          <mxGeometry x="1" relative="1" as="geometry" />
        </mxCell>
        <mxCell id="pqR6QMyqGFFjnIL56ZZp-121" value="regroupe" style="edgeLabel;html=1;align=center;verticalAlign=middle;resizable=0;points=[];" vertex="1" connectable="0" parent="pqR6QMyqGFFjnIL56ZZp-106">
          <mxGeometry x="0.0434" y="-3" relative="1" as="geometry">
            <mxPoint as="offset" />
          </mxGeometry>
        </mxCell>
        <mxCell id="pqR6QMyqGFFjnIL56ZZp-109" value="" style="endArrow=none;html=1;edgeStyle=orthogonalEdgeStyle;rounded=0;exitX=0;exitY=0.25;exitDx=0;exitDy=0;" edge="1" parent="1" source="pqR6QMyqGFFjnIL56ZZp-71">
          <mxGeometry relative="1" as="geometry">
            <mxPoint x="530" y="190" as="sourcePoint" />
            <mxPoint x="710" y="190" as="targetPoint" />
          </mxGeometry>
        </mxCell>
        <mxCell id="pqR6QMyqGFFjnIL56ZZp-110" value="1" style="edgeLabel;resizable=0;html=1;align=left;verticalAlign=bottom;" connectable="0" vertex="1" parent="pqR6QMyqGFFjnIL56ZZp-109">
          <mxGeometry x="-1" relative="1" as="geometry" />
        </mxCell>
        <mxCell id="pqR6QMyqGFFjnIL56ZZp-111" value="1..*" style="edgeLabel;resizable=0;html=1;align=right;verticalAlign=bottom;" connectable="0" vertex="1" parent="pqR6QMyqGFFjnIL56ZZp-109">
          <mxGeometry x="1" relative="1" as="geometry" />
        </mxCell>
        <mxCell id="pqR6QMyqGFFjnIL56ZZp-122" value="classe" style="edgeLabel;html=1;align=center;verticalAlign=middle;resizable=0;points=[];" vertex="1" connectable="0" parent="pqR6QMyqGFFjnIL56ZZp-109">
          <mxGeometry x="0.1962" y="-2" relative="1" as="geometry">
            <mxPoint as="offset" />
          </mxGeometry>
        </mxCell>
      </root>
    </mxGraphModel>
  </diagram>
</mxfile>
